<svg width="32" height="32" viewBox="0 0 32 32" fill="none" xmlns="http://www.w3.org/2000/svg">
<path fill-rule="evenodd" clip-rule="evenodd" d="M21.3333 0C15.4423 0 10.6667 4.77564 10.6667 10.6667V16C7.72115 16 5.33333 18.3878 5.33333 21.3333C5.33333 18.3878 2.94552 16 0 16V32H5.33333V21.3333H10.6667V32H16V21.3333C21.891 21.3333 26.6667 26.109 26.6667 32H32V10.6667C32 4.77564 27.2244 0 21.3333 0ZM26.6667 20.0741C23.836 17.5406 20.0979 16 16 16V10.6667C16 7.72115 18.3878 5.33333 21.3333 5.33333C24.2789 5.33333 26.6667 7.72115 26.6667 10.6667V20.0741ZM5.31185 13.312C6.78461 13.312 7.97852 12.1181 7.97852 10.6453C7.97852 9.17256 6.78461 7.97866 5.31185 7.97866C3.83909 7.97866 2.64518 9.17256 2.64518 10.6453C2.64518 12.1181 3.83909 13.312 5.31185 13.312Z" fill="#3D67FF"/>
<circle cx="5.31193" cy="10.6452" r="2.66667" fill="#A342FA"/>
</svg>
